<?xml version="1.0" encoding="utf-8"?>
<!-- Svg Vector Icons : http://www.onlinewebfonts.com/icon -->
<!DOCTYPE svg PUBLIC "-//W3C//DTD SVG 1.1//EN" "http://www.w3.org/Graphics/SVG/1.1/DTD/svg11.dtd">
<svg version="1.1" xmlns="http://www.w3.org/2000/svg" xmlns:xlink="http://www.w3.org/1999/xlink" x="0px" y="0px" viewBox="0 0 1000 1000" enable-background="new 0 0 1000 1000" xml:space="preserve">
<metadata> Svg Vector Icons : http://www.onlinewebfonts.com/icon </metadata>
<g><path d="M500,10c-162,0-336.9,128.8-336.9,336.9c0,102.7,40.9,189.1,119.3,254.6c0.8,1,1.8,1.9,2.8,2.7c58.2,63.1,61.2,75.2,61.6,102.9c0.2,11,0.1,14.2,0,16l-0.1,6.4c-0.5,13.8-1.2,37,27.5,45.8l247.9,54.5c1.1,0.2,2.2,0.4,3.3,0.4c7,0,13.4-4.9,14.9-12c1.8-8.3-3.4-16.4-11.7-18.3L382,745.6c-4.7-1.4-5.1-1.6-4.7-15.3l0.1-5.8c0,0,0.3-2.4,0.1-17.9c-0.6-38.9-9-57.6-70.7-124.3c-1.2-1.5-2.6-2.7-4.2-3.6c-72.2-61.3-108.7-139.3-108.7-231.8c0-189.2,158.9-306.2,306.3-306.2c150.6,0,306.3,114.6,306.3,306.2c0,121.8-59,189-107.7,231.2c-1.7,0.8-3.2,1.9-4.5,3.3c-62.4,67.5-70.8,86.3-71.4,125.1c0,0.9,0,2,0,3.2l0,1.1c-0.1,2.3-0.4,3.6-0.4,4.1c-1-0.2-3.6-0.6-3.6-0.6l-128.5-30.2c-8.3-1.9-16.5,3.2-18.4,11.4c-1.9,8.2,3.2,16.5,11.4,18.4L610,743.7c1.7,0.6,16.9,5.6,29.8-3.5c5.6-4,12.1-11.7,13.3-26.5l0.1-1.4c0-1,0.1-2,0.1-3c0-0.3,0-0.6,0-0.8l0-1.4c0.4-27.6,3.3-39.6,61.4-102.8c0.3-0.2,0.6-0.4,0.8-0.7C797.2,535,836.9,451,836.9,346.9C836.9,136,665.6,10,500,10L500,10z M622.5,913.4c7,0,13.3-4.8,14.9-11.9c1.9-8.2-3.3-16.4-11.5-18.3l-245-55.6c-8.3-1.8-16.4,3.3-18.3,11.5c-1.9,8.2,3.3,16.4,11.5,18.3l245,55.6C620.3,913.3,621.4,913.4,622.5,913.4L622.5,913.4z M396.2,915.1c-8.3-1.8-16.4,3.3-18.3,11.6c-1.8,8.3,3.3,16.4,11.6,18.3l199.1,44.7c1.2,0.3,2.3,0.4,3.4,0.4c7,0,13.4-4.8,14.9-12c1.8-8.3-3.3-16.4-11.6-18.3L396.2,915.1L396.2,915.1z"/></g>
</svg>